# xmcd CD database file
#
# Track frame offsets:
#	150
#	15467
#	39595
#	59282
#	79372
#	97585
#	113822
#	134377
#	156910
#	177550
#	196355
#	217997
#
# Disc length: 3212 seconds
#
# Revision: 0
# Processed by: cddbd v1.5.1PL2 Copyright (c) Steve Scherf et al.
# Submitted via: CDex 1.51
#
DISCID=9c0c8a0c
DTITLE=Various Artist - DA Music Collection # 11
DYEAR=1900
DGENRE=New Age
TTITLE0=Good Morning L.A./Freeze Frame
TTITLE1=Jazz Soup/Terry Marshall
TTITLE2=Butterfly/George Bishop
TTITLE3=Family Affair/Win Kowa
TTITLE4=Knightmoves/Blue Knights
TTITLE5=Crystal Palace?Deerong and Sakaide
TTITLE6=Living in the Inner City/Teekay
TTITLE7=Aries/Burkard Schmidl
TTITLE8=Atmosphere/Interface
TTITLE9=Shepherd's Dream/Lisa Franco
TTITLE10=V.F.X./David Geyra
TTITLE11=Hototogisu/Hiroki Okano
EXTD=
EXTT0=
EXTT1=
EXTT2=
EXTT3=
EXTT4=
EXTT5=
EXTT6=
EXTT7=
EXTT8=
EXTT9=
EXTT10=
EXTT11=
PLAYORDER=
